<?xml version="1.0" encoding="UTF-8"?>
<svg id="a" data-name="svg3476" xmlns="http://www.w3.org/2000/svg" viewBox="0 0 290.19 329.1">
  <defs>
    <style>
      .j {
        fill: #264de4;
      }

      .k {
        fill: #fff;
      }

      .l {
        fill: #2965f1;
      }

      .m {
        fill: #ebebeb;
      }
    </style>
  </defs>
  <g id="b" data-name="layer1">
    <g id="c" data-name="g3013">
      <polygon id="d" data-name="polygon2989" class="j" points="290.19 0 263.75 296.16 144.92 329.1 26.41 296.21 0 0 290.19 0"/>
      <polygon id="e" data-name="polygon2991" class="l" points="241.12 277.3 263.71 24.22 145.09 24.22 145.09 303.92 241.12 277.3"/>
      <polygon id="f" data-name="polygon2993" class="m" points="60.54 134.08 63.8 170.41 145.09 170.41 145.09 134.08 60.54 134.08"/>
      <polygon id="g" data-name="polygon2995" class="m" points="145.09 60.55 144.97 60.55 54 60.55 57.3 96.88 145.09 96.88 145.09 60.55"/>
      <polygon id="h" data-name="polygon2997" class="m" points="145.09 266.22 145.09 228.43 144.93 228.47 104.48 217.54 101.89 188.57 82.23 188.57 65.42 188.57 70.51 245.61 144.93 266.27 145.09 266.22"/>
      <polygon id="i" data-name="polygon3005" class="k" points="189.7 170.41 185.49 217.52 144.97 228.46 144.97 266.25 219.44 245.61 219.99 239.47 228.53 143.83 229.41 134.08 235.97 60.55 144.97 60.55 144.97 96.88 196.16 96.88 192.85 134.08 144.97 134.08 144.97 170.41 189.7 170.41"/>
    </g>
  </g>
</svg>