<?xml version="1.0" encoding="UTF-8"?>
<svg id="a" data-name="Layer 1" xmlns="http://www.w3.org/2000/svg" viewBox="0 0 24.5 24.42">
  <defs>
    <style>
      .b {
        fill: none;
        stroke: #fff;
        stroke-miterlimit: 10;
        stroke-width: 2px;
      }
    </style>
  </defs>
  <path class="b" d="m1.76,23.42h7.47c.42,0,.76-.34.76-.76v-5.04c0-.52.42-.95.95-.95h2.6c.52,0,.95.42.95.95v5.04c0,.42.34.76.76.76h7.47c.42,0,.76-.34.76-.76v-12.6c0-.09-.04-.17-.11-.22L12.43,1.06c-.1-.08-.25-.08-.35,0L1.11,9.84c-.07.05-.11.13-.11.22v12.6c0,.42.34.76.76.76Z"/>
</svg>