<?xml version="1.0" encoding="UTF-8"?>
<svg id="a" data-name="Layer 1" xmlns="http://www.w3.org/2000/svg" viewBox="0 0 565.34 641.16">
  <defs>
    <style>
      .b {
        fill: #fff;
      }

      .c {
        fill: #f16529;
      }

      .d {
        fill: #ebebeb;
      }

      .e {
        fill: #e44d26;
      }
    </style>
  </defs>
  <path class="e" d="m565.34,0l-51.5,576.98-231.51,64.18-230.87-64.09L0,0h565.34,0Z"/>
  <path class="c" d="m282.67,592.1l187.07-51.86,44.01-493.05h-231.08v544.92Z"/>
  <path class="d" d="m182.55,188.73h100.12v-70.77H105.2l1.69,18.99,17.4,195.04h158.38v-70.77h-93.65l-6.47-72.47Zm15.95,178.64h-71.05l9.91,111.13,144.98,40.24.33-.09v-73.64l-.31.08-78.82-21.28-5.04-56.45h0Z"/>
  <path class="b" d="m282.43,331.98h87.15l-8.22,91.79-78.94,21.31v73.63l145.09-40.21,1.06-11.96,16.63-186.33,1.73-19h-164.51v70.77h0Zm0-143.42v.17h170.95l1.42-15.91,3.23-35.88,1.69-18.99h-177.29v70.6h0Z"/>
</svg>