<svg viewBox="0 0 32 32" xml:space="preserve" xmlns="http://www.w3.org/2000/svg"><path d="M30.5 28h-29a.5.5 0 0 1-.5-.5v-23a.5.5 0 0 1 .5-.5h29a.5.5 0 0 1 .5.5v23a.5.5 0 0 1-.5.5zM2 27h28V5H2v22z" fill="#ffffff" class="fill-263238"></path><path d="M28.5 26h-23a.5.5 0 0 1 0-1H28V6.5a.5.5 0 0 1 1 0v19a.5.5 0 0 1-.5.5zM3.5 26a.5.5 0 0 1-.5-.5v-19a.5.5 0 0 1 .5-.5h23a.5.5 0 0 1 0 1H4v18.5a.5.5 0 0 1-.5.5z" fill="#ffffff" class="fill-263238"></path><path d="M16.834 26c-2.557 0-4.2-2.038-5.94-4.195C8.989 19.442 7.019 17 3.666 17a.5.5 0 0 1 0-1c3.832 0 6.05 2.751 8.007 5.178C13.327 23.229 14.755 25 16.834 25a.5.5 0 0 1 0 1z" fill="#ffffff" class="fill-263238"></path><path d="M11.612 22.077a.5.5 0 0 1 0-1c5.047 0 7.093-2.524 9.07-4.965 1.801-2.223 3.664-4.521 7.642-4.607a.5.5 0 0 1 .022 1c-3.514.075-5.077 2.004-6.886 4.237-2.026 2.5-4.323 5.335-9.848 5.335zM13 15c-1.654 0-3-1.346-3-3s1.346-3 3-3 3 1.346 3 3-1.346 3-3 3zm0-5c-1.103 0-2 .897-2 2s.897 2 2 2 2-.897 2-2-.897-2-2-2z" fill="#ffffff" class="fill-263238"></path></svg>