<?xml version="1.0" encoding="UTF-8"?>
<svg id="a" data-name="Layer 1" xmlns="http://www.w3.org/2000/svg" viewBox="0 0 23.14 23.14">
  <defs>
    <style>
      .b {
        fill: #00e0da;
      }

      .c {
        fill: #231f20;
      }
    </style>
  </defs>
  <rect class="b" width="23.14" height="23.14"/>
  <g>
    <g>
      <circle class="c" cx="11.57" cy="11.57" r="1.78"/>
      <path class="c" d="m11.57,13.79c-1.22,0-2.21-.99-2.21-2.21s.99-2.21,2.21-2.21,2.21.99,2.21,2.21-.99,2.21-2.21,2.21Zm0-3.56c-.74,0-1.35.6-1.35,1.35s.6,1.35,1.35,1.35,1.35-.6,1.35-1.35-.6-1.35-1.35-1.35Z"/>
    </g>
    <g>
      <path class="c" d="m11.57,15.65c-5.6,0-9.99-1.79-9.99-4.08s4.39-4.08,9.99-4.08,9.99,1.79,9.99,4.08-4.39,4.08-9.99,4.08Zm0-7.3c-5.37,0-9.12,1.69-9.12,3.21s3.74,3.21,9.12,3.21,9.12-1.69,9.12-3.21-3.75-3.21-9.12-3.21Z"/>
      <path class="c" d="m15.59,20.47c-2.08,0-5.16-2.72-7.55-6.86-1.3-2.25-2.19-4.57-2.5-6.53-.34-2.1.04-3.57,1.05-4.16,1.99-1.14,5.73,1.76,8.53,6.61h0c2.8,4.85,3.44,9.55,1.46,10.69-.29.17-.62.25-.98.25ZM7.58,3.54c-.22,0-.41.05-.57.14-.67.39-.89,1.58-.62,3.27.3,1.86,1.15,4.07,2.4,6.24,2.69,4.65,6.03,7.04,7.34,6.29,1.32-.76.91-4.85-1.78-9.5h0c-2.36-4.08-5.22-6.43-6.77-6.43Z"/>
      <path class="c" d="m7.56,20.47c-.36,0-.69-.08-.98-.25-1.98-1.14-1.34-5.84,1.46-10.69,2.8-4.85,6.54-7.75,8.53-6.61,1.01.58,1.38,2.06,1.05,4.16-.31,1.96-1.2,4.28-2.51,6.53h0c-2.39,4.14-5.47,6.86-7.55,6.86ZM15.56,3.54c-1.55,0-4.41,2.35-6.77,6.43-2.69,4.65-3.09,8.74-1.78,9.5,1.32.76,4.66-1.64,7.34-6.29,1.25-2.16,2.1-4.38,2.4-6.24.27-1.69.04-2.88-.62-3.27-.16-.09-.35-.14-.57-.14Z"/>
    </g>
  </g>
</svg>